<?xml version="1.0" encoding="utf-8"?>
<!-- Generator: Adobe Illustrator 27.9.0, SVG Export Plug-In . SVG Version: 6.00 Build 0)  -->
<svg version="1.1" id="Layer_1" xmlns="http://www.w3.org/2000/svg" xmlns:xlink="http://www.w3.org/1999/xlink" x="0px" y="0px"
	 viewBox="0 0 595.28 694.89" style="enable-background:new 0 0 595.28 694.89;" xml:space="preserve">
<style type="text/css">
	.st0{fill:#21409A;stroke:#000000;stroke-miterlimit:10;}
	.st1{fill:#00A651;stroke:#000000;stroke-miterlimit:10;}
	.st2{fill:none;stroke:#000000;stroke-miterlimit:10;}
	.st3{fill:#FFFFFF;stroke:#000000;stroke-miterlimit:10;}
	.st4{font-family:'MyriadPro-Regular';}
	.st5{font-size:366.8353px;}
	.st6{fill:#00A651;}
	.st7{font-family:'Bauhaus93';}
	.st8{fill:#FFF200;stroke:#FFF200;stroke-width:3;stroke-miterlimit:10;}
	.st9{fill:none;stroke:url(#SVGID_1_);stroke-miterlimit:10;}
	.st10{fill:#8DC63F;stroke:#D7DF23;stroke-miterlimit:10;}
	.st11{fill:none;stroke:#009444;stroke-miterlimit:10;}
	.st12{fill:#D1D3D4;stroke:#000000;stroke-miterlimit:10;}
	.st13{fill:#2E3192;stroke:#2E3192;stroke-miterlimit:10;}
	.st14{fill:#F1F2F2;stroke:#BCBEC0;stroke-width:2;stroke-miterlimit:10;}
	.st15{fill:#ED1C24;stroke:#000000;stroke-miterlimit:10;}
	.st16{fill:#EC008C;stroke:#000000;stroke-miterlimit:10;}
	.st17{fill:none;stroke:#BCBEC0;stroke-width:2;stroke-miterlimit:10;}
	.st18{fill:none;stroke:#000000;stroke-width:2;stroke-miterlimit:10;}
	.st19{fill:none;stroke:#A7A9AC;stroke-width:3;stroke-miterlimit:10;}
	.st20{fill:none;stroke:#000000;stroke-width:3;stroke-miterlimit:10;}
	.st21{fill:#EE2A7B;stroke:url(#SVGID_00000001645559322939460110000014020792289883812769_);stroke-width:3;stroke-miterlimit:10;}
	.st22{stroke:#000000;stroke-miterlimit:10;}
	.st23{fill:none;stroke:#FFFFFF;stroke-width:2;stroke-miterlimit:10;}
	.st24{fill:#ED1C24;stroke:#FFFFFF;stroke-width:3;stroke-miterlimit:10;}
	.st25{fill:#FFF200;}
	.st26{fill:#A7A9AC;stroke:#000000;stroke-miterlimit:10;}
	.st27{fill:#00AEEF;stroke:#000000;stroke-miterlimit:10;}
	.st28{fill:#F15A29;stroke:#000000;stroke-miterlimit:10;}
	.st29{fill:#92278F;stroke:#000000;stroke-miterlimit:10;}
	.st30{fill:#E6E7E8;stroke:#000000;stroke-width:5;stroke-miterlimit:10;}
	.st31{fill:#FFFFFF;stroke:#000000;stroke-width:5;stroke-miterlimit:10;}
	.st32{fill:none;stroke:#000000;stroke-width:5;stroke-miterlimit:10;}
	.st33{stroke:#000000;stroke-width:3;stroke-miterlimit:10;}
</style>
<circle class="st0" cx="297.64" cy="360.17" r="204.45"/>
<path class="st1" d="M475.91,462.09c-2.48-9.35,0.83-21.83,7.58-28.75c-3.7-7.26,0.24-15.95,4.48-22.91
	c4.24-6.95,5.73-15.53,6.81-23.6c0.73-5.47-3.04-11.2-8.36-12.68c0.22-4.23,2.71-8.06,3.15-12.27c0.45-4.21-3.01-9.43-7-8
	c0.67-9.97-0.63-20.07-3.82-29.53c-0.59-1.77-1.33-3.61-2.83-4.72c-1.49-1.1-3.44-1.26-5.29-1.35c-8.57-0.38-17.19,0.18-25.64,1.66
	c-0.64,9.06-3.38,18.19-4.02,27.25c-3.03-12.15-8.28-23.75-15.42-34.04c-3.27-4.72-7.18-9.35-12.54-11.43
	c-4.25-1.65-8.97-1.51-13.51-1.1c-5.39,0.48-8.82,4.05-14.1,5.2c0.97,6.09,7.81,9.2,13.84,10.52c6.03,1.32,12.88,2.31,16.54,7.27
	c3.16,4.29,2.82,10.12,2.34,15.43c-0.12,1.37-0.26,2.78-0.94,3.98c-1.46,2.59-4.89,3.28-7.85,3.11c-8.15-0.46-15.84-5.7-19.26-13.11
	c-1.37-2.97-2.1-6.24-3.75-9.07s-4.62-5.27-7.88-4.93c-4.39,0.47-8.47,5.7-12.26,3.43c0.07,4.23,0.02,10.4,3.21,13.18
	c6.42,5.61,11.99,12.18,16.47,19.42c10.05,0.19,20.1,0.38,30.15,0.57c-3.65,13.9,1.99,33.85-7.4,44.73
	c-4.93,5.71-8.5,12.58-10.36,19.89c5.17,1.99,7.94,8,7.6,13.52s-4.94,10.59-8.23,15.04c-5.92,1.87-10.58,7.26-11.56,13.38
	c-0.49,3.06-0.13,6.2-0.58,9.26c-0.94,6.4-5.67,12.1-11.8,14.19c-6.12,2.09-13.35,0.48-18.01-4.01c-0.75-4.27,1.53-8.44,2.25-12.72
	c0.72-4.28-4.78-13.99-9.12-13.73c1.17-6.76,2.34-13.51,3.5-20.27c-2.24-0.61-4.49-1.22-6.73-1.83c0.35-7.23-1.48-15.96-2.93-23.05
	c0.94-1.61-1.59-3.11-3.45-2.88c-1.85,0.23-4.1,0.9-5.32-0.51c-0.66-0.76-0.7-1.86-0.72-2.87c-0.07-5.13-0.14-10.25-0.2-15.38
	c-3.14-0.07-6.2-1.5-9.34-1.57c-0.08-1.37-0.15-2.75-0.23-4.12c-5.08-0.24-10.09,1.15-14.99,2.53c-0.54,0.15-1.08,0.3-1.62,0.46
	c-6.42,1.8-13.13,3.62-19.68,2.33c-6.54-1.29-15.79-9.42-15.58-16.08c-5.31-4.03-7.48-11.17-7.15-17.82s1.84-13.12,4.55-19.21
	c4.6-10.35,11.87-22.08,23.19-22.07c6.15,0.01,12.21,3.72,18.17,2.19c2.69-0.69,4.99-2.39,7.41-3.74
	c6.23-3.49,13.67-4.79,20.72-3.63c-0.98,2.17,2.3,3.65,4.68,3.79c2.89,0.17,5.78,0.34,8.67,0.51c3.66,0.21,7.6,0.36,10.68-1.64
	c3.07-2,4.34-7.04,1.45-9.29c-5.03-0.7-10.32,0.75-14.28,3.91c-1.2-0.75-1.84-2.31-1.5-3.69c-3.67-2.67-8.5,1.26-13.02,1.69
	c-5.68,0.54-10.21-4.53-15.62-6.35c-5.2-1.75-13.21,0.17-15.02,5.36c-1.68,4.83-7.64,7.66-12.45,5.92
	c-4.81-1.74-7.57-7.74-5.77-12.52c1.8-4.79,10.6-13.04,15.36-11.18c-2.28-0.92-7.1-2.75-9.56-2.8c-3.12-0.07-6.24-0.14-9.36-0.22
	c-0.2-6.4-0.38-12.92,1.4-19.07c1.78-6.15,5.71-9.92,11.72-12.11c1.25,3.87,1.91,7.92,1.95,11.99c3.53,1.55,11.38-2.51,14.91-0.96
	c4.64-1.89,10.25-11.64,6.77-15.25c-3.6-0.04-7.19-0.08-10.79-0.12c0.63-10.51,4.08-21.44,10.87-29.49
	c4.22-5.01,12.49-2.25,17.58,1.87s10.61,7.38,17.14,6.84c-3.72-5.75,1.54-14.97,8.25-13.66c-1.63-3.06-1.7-6.03-3.34-9.08
	c0.47-2.54,4.38-1.38,6.31,0.34c4.33,3.88,8.08,6.66,12.41,10.54c-2.51-10.03-10.32-18.87-18.73-24.88
	c-2.77,0.75-7.05-0.02-9.59-1.38c-5.94,1.75-11.05-4.32-14.29-9.6c8.13-0.79,17.2,2.86,25.32,3.83c8.5,1.01,19.83-0.98,27.31,3.18
	c-2.25-2.32-4.5-4.63-6.74-6.95c3.04,0.16,14.24,5.87,17.28,6.03c6.6,6.54,13.31,13.15,21.36,17.78c3.69,2.12,7.62,3.81,11.16,6.17
	c10.1,6.74,24.11,14.11,24.11,26.25c0,1.83,2.33,7.18,3.1,8.83c7.57,16.39,15.18,32.9,19.54,50.42c0.62,2.48,1.17,4.99,2.19,7.34
	c0.95,2.19,2.3,4.2,3.44,6.3c3.76,6.95,5.25,15.1,4.18,22.93c-0.55,4.02,0.57,9.56,0.64,13.62c3.14,0.03,6.28-0.86,8.94-2.52
	c1.8,12.66,2.37,25.5,1.7,38.28"/>
<path class="st1" d="M416.8,434.92c4.65-3.46,5.86-9.77,8.46-14.95c2.6-5.18,9.1-9.81,13.84-6.47c1.19,8.33,2.35,17.05-0.44,24.99
	c-2.79,7.94-10.9,14.7-19.13,12.96c-0.04-5.56-0.07-11.12-0.11-16.68"/>
<path class="st1" d="M236.46,184.44c-9.48,9.51-20.49,17.49-32.49,23.51c-4.29,12.23,6.59,27.09,1.63,39.07
	c-4.89-0.02-9.79-0.03-14.68-0.05c-2.09-6.88-2.37-14.3-0.79-21.31c0.37,2.31-2.48,4.42-4.58,3.4c-1.04-3.19-0.71-6.81,0.89-9.76
	c1.2-2.22,3.07-4.07,3.9-6.45c0.84-2.38-1.02-4.8-3.48-5.36c0.4,4.94-2.48,9.69-6.32,12.82s-8.57,4.94-13.21,6.69
	c4.01,1.12,8.31,2.88,12.44,2.3c-0.07,6.32-0.14,12.65-0.22,18.97c-4.05,0.07-9.78,0.61-13.83,0.68c-2.42-1.52-5.86-1.15-7.9,0.85
	c-2.04,2-2.47,5.44-0.99,7.88c2.8,1.34,6.08,0.29,9.17,0.05c3.09-0.24,7.01,1.2,7.1,4.3c0.05,1.67-0.21,2.42,1.46,2.55
	c8.69-5.61,19.83-7.27,29.78-4.43c0.81,0.23,1.66,0.52,2.19,1.18c0.58,0.72,0.65,1.73,0.68,2.66c0.31,9.84-0.28,19.71-1.76,29.44
	c-0.44,2.93-1.03,6-2.91,8.3c-1.88,2.3-5.47,3.46-7.9,1.75c-3.8-2.68-1.86-9.5-5.44-12.46c-1.07-0.89-2.47-1.26-3.84-1.52
	c-6.26-1.22-13.02-0.73-18.58,2.38c-5.56,3.11-11.79,9.13-11.72,15.51c-11.92,7.14-20.89,19.06-24.46,32.49
	c-0.13-2.54-0.27-5.08-0.4-7.62c-4.45-0.69-9.08-0.19-13.27,1.46c-0.16,5.12-0.33,10.23-0.49,15.35c3.64-2.38,7.1-3.31,11.23-1.95
	c0,9.59,1.43,19.37,1.43,28.95c4.28-1.41,11.87,0.81,15.36,3.66c1.45,1.18,2.9,2.36,4.34,3.54c4.55-7.27,14.24-10.86,22.42-8.32
	c1.12,4.97,2.7,9.83,4.72,14.5c3.8,8.82,15.85,13.29,25.45,13.48c4.47,0.09,10.11-0.22,12.09,3.79c0.7,1.42,0.7,3.07,0.69,4.65
	c-0.03,3.77-0.06,7.55-0.09,11.32c-0.02,2.77-2,6.7-4.29,5.16c1.06,1.7-3.62,5.02-4.55,6.79c-2,3.79,0.75,8.22,2.99,11.87
	s3.72,9.14,0.24,11.65c-2.84,2.05-7.81,0.95-9.3,4.11c-4.39,9.37-6.29,21.23-3.9,31.29c0.6,2.53-0.33,6.69-0.25,9.3
	c5.08,0.79,9.8,3.64,12.88,7.75c0.13,2.56,0.26,5.11,0.4,7.67c-11.78,2.21-24.65-4.55-29.51-15.51c-1.63-3.67-2.41-7.64-3.18-11.58
	c-2.8-14.33-5.6-28.65-8.4-42.98c-0.99-5.08-6.01-9.8-10.42-12.5c-8.95-5.49-17.9-10.99-26.85-16.48c-8.28-5.08-7.3-20.66-3.4-29.55
	c-8.52-11.21-14.13-26.3-17.29-40.01c-3.45-14.97-4.02-31.79-1.85-46.99c0.38-2.66,1.22-5.8,3.79-6.6
	c-0.62-7.97,4.9-14.97,9.12-21.76c5.07-8.14,10.14-16.28,15.21-24.43c8.86-3.46,13.61-14.56,20.13-21.47
	c6.63-7.03,15.98-10.47,20.11-19.74c-0.53,2.79,0.15,5.94-0.27,8.79c11.37-8.62,25.36-32.35,41.18-28.09
	c9.18,2.47,16.36-9.93,24.36-11.78c-1.19,10.75-11.66,19.59-17.49,28.1c1.73,0.26,3.45,0.58,5.15,0.96
	c0.48,14.36-12.33,28.07-7.21,42.96c4.27,0.56,8.54,1.12,12.81,1.69c-2.03-12.42,8.34-23.26,18.66-30.45
	c5.63-3.92,12.23-8.73,12-15.58c-0.22-6.38-6.6-12.26-4.32-18.23c-2.64-0.58-5.58,0.96-6.62,3.45c-0.19-1.12-0.38-2.25-0.56-3.37
	c-4.84-1.79-10.85,0.69-13.03,5.36"/>
<path class="st2" d="M198.83,302.04c-1.83-0.8-4.14-0.32-5.5,1.14"/>
<path class="st3" d="M105.74,19.7"/>
<text transform="matrix(0.3067 0 0 1 83.1857 249.2027)"><tspan x="0" y="0" class="st4 st5">  </tspan><tspan x="155.53" y="0" class="st6 st7 st5">TERRE</tspan><tspan x="0" y="440.2" class="st6 st7 st5">MARKET</tspan></text>
<circle class="st8" cx="131.66" cy="194.02" r="20.01"/>
<linearGradient id="SVGID_1_" gradientUnits="userSpaceOnUse" x1="112.5837" y1="194.0208" x2="150.7454" y2="194.0208">
	<stop  offset="0" style="stop-color:#FFFFFF"/>
	<stop  offset="1" style="stop-color:#000000"/>
</linearGradient>
<line class="st9" x1="112.75" y1="187.51" x2="150.58" y2="200.53"/>
<circle class="st10" cx="103.45" cy="173.87" r="19.15"/>
<line class="st11" x1="89.67" y1="187.17" x2="117.22" y2="160.56"/>
<circle class="st2" cx="75.06" cy="202.7" r="18.12"/>
<circle class="st12" cx="573.4" cy="660.5" r="18.12"/>
<circle class="st13" cx="550.86" cy="613.62" r="18.12"/>
<circle class="st14" cx="22.38" cy="557.45" r="18.12"/>
<circle class="st15" cx="22.38" cy="613.62" r="18.12"/>
<circle class="st16" cx="26.58" cy="669.78" r="18.12"/>
<line class="st17" x1="5.69" y1="550.37" x2="39.06" y2="564.53"/>
<line class="st2" x1="7.01" y1="623.22" x2="37.75" y2="604.01"/>
<line class="st18" x1="28.84" y1="687.86" x2="26.31" y2="651.7"/>
<line class="st19" x1="532.73" y1="613.62" x2="568.98" y2="613.62"/>
<path class="st20" d="M544.86,683.25"/>
<path class="st20" d="M520.61,656.31"/>
<linearGradient id="SVGID_00000158011171966937040680000007092135974455151780_" gradientUnits="userSpaceOnUse" x1="555.21" y1="660.5028" x2="591.5829" y2="660.5028">
	<stop  offset="0" style="stop-color:#FFFFFF"/>
	<stop  offset="1" style="stop-color:#000000"/>
</linearGradient>
<line style="fill:#EE2A7B;stroke:url(#SVGID_00000158011171966937040680000007092135974455151780_);stroke-width:3;stroke-miterlimit:10;" x1="591.45" y1="658.92" x2="555.34" y2="662.08"/>
<line class="st2" x1="65.46" y1="187.32" x2="84.67" y2="218.07"/>
<circle class="st22" cx="65.07" cy="575.57" r="18.12"/>
<line class="st23" x1="46.95" y1="575.57" x2="83.2" y2="575.57"/>
<path class="st24" d="M491.62,163.97l-12.73,35.01c-1.78,4.88,2.68,9.74,7.7,8.4l45.71-12.25c5.01-1.34,6.43-7.78,2.44-11.1
	l-28.73-23.94C501.16,156.04,493.78,158.04,491.62,163.97z"/>
<g>
	<line class="st25" x1="501.15" y1="166.11" x2="503.96" y2="183.89"/>
	<path class="st25" d="M501.59,166.04c2.64,1.11,5.49,3.14,5.01,6.04c-0.87,3.9-0.97,7.86-2.2,11.74c0,0-0.89,0.14-0.89,0.14
		c-1.77-2.69-3.29-5.48-4.52-8.4c-0.58-1.38-1.99-2.66-1.59-4.3c0.45-2.04,1.44-3.51,3.3-5.08
		C500.7,166.18,501.59,166.04,501.59,166.04L501.59,166.04z"/>
</g>
<path class="st25" d="M506.22,187.02c-6.43,0-6.45,10,0,10C512.65,197.02,512.66,187.02,506.22,187.02z"/>
<path class="st26" d="M37.73,516.5l25.35,13.48c6.58,3.5,14.76,1,18.26-5.58h0c3.5-6.58,1-14.76-5.58-18.26l-21.7-11.54"/>
<path class="st26" d="M54.06,494.6l-18.03-9.59c-6.58-3.5-14.76-1-18.26,5.58l0,0c-3.5,6.58-1,14.76,5.58,18.26l14.38,7.65"/>
<path class="st27" d="M31.54,246.98L31.54,246.98c7.46,0,13.5-6.04,13.5-13.5v-45c0-7.46-6.04-13.5-13.5-13.5h0
	c-7.46,0-13.5,6.04-13.5,13.5v45C18.04,240.94,24.08,246.98,31.54,246.98z"/>
<path class="st28" d="M60.99,229.65L60.99,229.65c-5.45,5.08-5.75,13.63-0.67,19.08l30.69,32.91c5.08,5.45,13.63,5.75,19.08,0.67h0
	c5.45-5.08,5.75-13.63,0.67-19.08l-30.69-32.91C74.98,224.86,66.44,224.57,60.99,229.65z"/>
<line class="st2" x1="18.56" y1="211" x2="45.56" y2="211"/>
<line class="st2" x1="76.02" y1="264.03" x2="96.09" y2="245.97"/>
<line class="st2" x1="42.7" y1="520.32" x2="57.41" y2="497.68"/>
<path class="st29" d="M591.03,523.33L591.03,523.33c-4.28-6.11-12.69-7.59-18.8-3.32l-36.86,25.81c-6.11,4.28-7.59,12.69-3.32,18.8
	l0,0c4.28,6.11,12.69,7.59,18.8,3.32l36.86-25.81C593.82,537.86,595.3,529.44,591.03,523.33z"/>
<line class="st2" x1="556.43" y1="534.66" x2="567.68" y2="551.34"/>
<rect x="18.06" y="390.5" class="st30" width="36" height="72"/>
<path class="st30" d="M27.06,363.5h18c9,27,9,27,9,27h-36C27.06,363.5,27.06,363.5,27.06,363.5z"/>
<rect x="27.06" y="345.5" class="st31" width="18.5" height="17.5"/>
<path class="st32" d="M38.67,409.26c-3.15,6.54-6.29,13.09-9.44,19.63c4.7,0.07,9.4,0.15,14.09,0.22
	c-3.91,4.97-7.83,9.95-11.74,14.92"/>
<ellipse class="st33" cx="49.56" cy="125.5" rx="32" ry="31.5"/>
<circle class="st33" cx="72.56" cy="31" r="27"/>
<circle class="st33" cx="120.06" cy="105.5" r="22.5"/>
<line class="st32" x1="81.56" y1="120" x2="99.56" y2="111"/>
<line class="st32" x1="57.54" y1="93.98" x2="69.57" y2="47.02"/>
</svg>
